<svg width="25" height="24" viewBox="0 0 25 24" fill="none" xmlns="http://www.w3.org/2000/svg">
<path opacity="0.3" d="M12.3333 14C11.2266 14 10.3333 13.1067 10.3333 12C10.3333 10.8933 11.2266 10 12.3333 10C13.44 10 14.3333 10.8933 14.3333 12C14.3333 13.1067 13.44 14 12.3333 14Z" fill="#FF766A"/>
<path fill-rule="evenodd" clip-rule="evenodd" d="M8.33331 12C8.33331 9.78286 10.1162 8 12.3333 8C14.5505 8 16.3333 9.78286 16.3333 12C16.3333 14.2171 14.5505 16 12.3333 16C10.1162 16 8.33331 14.2171 8.33331 12ZM10.3333 12C10.3333 13.1067 11.2266 14 12.3333 14C13.44 14 14.3333 13.1067 14.3333 12C14.3333 10.8933 13.44 10 12.3333 10C11.2266 10 10.3333 10.8933 10.3333 12Z" fill="#FF766A"/>
</svg>
